<?xml version="1.0" standalone="no"?> <!DOCTYPE svg PUBLIC "-//W3C//DTD SVG 1.0//EN" "http://www.w3.org/TR/2001/REC-SVG-20010904/DTD/svg10.dtd" > <svg xmlns="http://www.w3.org/2000/svg" width="100%" height="100%">
<defs >
<font id="agbookroundedbold" horiz-adv-x="475" ><font-face
    font-family="AGBookRounded-Bold"
    units-per-em="1000"
    panose-1="2 0 5 3 6 0 0 2 0 4"
    ascent="926"
    descent="-200"
    alphabetic="0" />
<missing-glyph horiz-adv-x="292" />
<glyph unicode=" " glyph-name="space" horiz-adv-x="292" />
<glyph unicode="!" glyph-name="exclam" horiz-adv-x="271" d="M224 296Q222 286 220 275T209 254Q200 241 186 236T157 230Q150 230 140 232T120 240T101 259T90 291L71 441Q70 450 70 457T69 470T68 483T67 502V602Q67 615 68 629T75 659Q83 681 96 692T122
709T146 716T161 717Q184 717 202 708Q219 699 228 685T243 657T249 629T250 605V502Q250 491 250 484T249 470T247 454T243 433L224 296ZM156 -10Q136 -10 119 -3T89 18T69 48T61 84Q61 124 88 151T156 179Q175 179 192 172T222 152T242 122T250 84Q250 65 243
48T223 18T193 -2T156 -10Z" />
<glyph unicode="&quot;" glyph-name="quotedbl" horiz-adv-x="479" d="M425 452Q425 420 410 399T359 377Q338 377 325 384T305 403T296 428T294 452V639Q294 671 309 693T360 716Q395 716 410 694T425 639V452ZM185 452Q185 420 170 399T119 377Q98 377 85 384T65
403T56 428T54 452V639Q54 671 69 693T120 716Q155 716 170 694T185 639V452Z" />
<glyph unicode="$" glyph-name="dollar" horiz-adv-x="604" d="M356 708Q375 706 404 699T465 671Q498 649 523 612T548 532Q548 487 522 465T466 443Q449 443 436 449T417 459Q406 467 401 476T388 506Q386 512 381 523T366 544T338 562T295 570Q272 570 256
565T231 552T217 533T213 512Q213 495 220 484T239 465T269 452T305 440Q320 435 335 431T364 421Q400 408 423 400T466 382Q475 377 493 366T530 333T563 279T577 199Q577 176 571 151T551 102T514 55T455 16Q423 1 398 -2T352 -8Q354 -22 355 -40T356 -72Q356
-82 355 -94T347 -116T329 -134T296 -141Q275 -141 264 -134T248 -115T242 -92T241 -72Q241 -59 241 -42T243 -10Q179 -7 137 15T71 67T37 128T27 182Q27 207 35 224T55 251T81 267T109 272Q126 272 139 266T162 252T178 234T187 218Q190 211 192 205T198 192Q201
185 206 175T223 156T251 141T295 135Q302 135 311 135T332 139Q353 144 371 158T390 199Q390 219 381 230T361 248Q356 252 350 255T333 262T301 273T248 291Q218 301 181 315T111 352T57 411T35 499Q35 514 38 535T51 581Q68 623 93 645T144 681Q175 698 198
702T246 710Q245 721 244 737T243 766Q243 796 257 813T301 831Q327 831 342 814T358 764Q358 761 358 753T358 737T357 720T356 708Z" />
<glyph unicode="%" glyph-name="percent" horiz-adv-x="917" d="M328 22Q323 14 314 4T286 -7Q281 -7 274 -5T260 1T249 13T244 32Q244 41 247 48T254 62L589 684Q595 694 603 703T630 712Q643 712 657 703T671 672Q671 664 669 659T664 647L328 22ZM543 227Q543
237 544 257T550 302T567 353T601 403Q608 410 618 418T644 434T678 447T722 453Q740 453 759 449T796 436T831 411T862 371Q880 340 887 304T894 226Q894 175 883 132T850 59T793 11T713 -7Q647 -7 602 39Q564 79 554 128T543 227ZM721 355Q701 355 689 345T668
316T657 275T654 225Q654 207 655 183T663 138T683 102T719 87Q740 87 753 99T772 131T781 174T783 219Q783 285 770 320T721 355ZM24 486Q24 496 25 516T31 561T48 612T82 662Q89 669 99 677T125 693T159 706T203 712Q220 712 239 708T276 695T311 670T342 630Q360
599 367 563T374 485Q374 434 363 391T329 318T273 270T194 253Q128 253 83 299Q45 339 35 388T24 486ZM201 614Q182 614 169 604T149 575T138 534T135 484Q135 466 136 443T144 398T163 362T199 347Q220 347 233 359T252 391T261 433T263 478Q263 543 250 578T201
614Z" />
<glyph unicode="&amp;" glyph-name="ampersand" horiz-adv-x="688" d="M376 357Q388 339 396 328T411 307T425 288T443 267Q445 271 447 275T452 284Q454 289 456 295T462 308Q476 337 496 347T533 357Q565 357 584 334T604 282Q604 230 542 162Q551 157 559 154T582
146Q596 143 610 140T635 128Q652 117 658 101T664 71Q664 45 644 23T581 1Q569 1 558 3T535 7Q501 15 481 25T442 46Q421 32 398 20T334 -2Q314 -7 293 -10T248 -14Q196 -14 154 4T81 52T33 124T16 210Q16 257 32 290T72 346T120 382T161 402Q150 417 135 444T120
516Q120 547 131 577T167 631T226 670T310 685Q351 685 384 672T440 635T475 582T487 517Q487 509 484 486T463 433Q443 399 420 384T376 357ZM300 459Q316 467 325 477T339 496T344 512T345 523Q345 534 338 548T309 563Q290 563 281 551T272 525Q272 513 279
498T300 459ZM233 288Q213 274 197 257T180 210Q180 196 184 182T198 156T223 137T262 129Q285 129 303 136T338 151Q317 176 304 193T279 224T258 252T233 288Z" />
<glyph unicode="&apos;" glyph-name="quotesingle" horiz-adv-x="229" d="M180 452Q180 420 165 399T114 377Q93 377 80 384T60 403T51 428T49 452V639Q49 671 64 693T115 716Q150 716 165 694T180 639V452Z" />
<glyph unicode="(" glyph-name="parenleft" horiz-adv-x="354" d="M265 -183Q236 -183 212 -161T160 -94Q150 -78 131 -45T93 34T60 139T46 265Q46 356 79 456T184 655Q207 686 225 700T266 714Q296 714 315 695T335 649Q335 636 331 626T320 604Q278 527 253
444T228 273Q228 224 235 175T254 80T280 -2T307 -63Q318 -83 323 -95T328 -123Q328 -139 321 -150T305 -168T284 -179T265 -183Z" />
<glyph unicode=")" glyph-name="parenright" horiz-adv-x="354" d="M90 714Q99 714 112 711T143 692Q159 678 175 655T205 609T229 567T244 539Q276 472 292 403T309 266Q309 174 276 74T171 -124Q148 -155 130 -169T89 -183Q59 -183 40 -164T20 -118Q20 -105
24 -95T35 -73Q92 32 109 114T127 257Q127 306 120 356T101 451T75 533T48 594Q37 614 32 626T27 654Q27 670 33 681T50 699T71 710T90 714Z" />
<glyph unicode="*" glyph-name="asterisk" horiz-adv-x="396" d="M252 607Q268 615 286 622T320 630Q346 630 359 610T373 569Q373 550 363 539T339 521T308 511T280 507Q286 502 295 494T312 476T326 455T332 432Q332 419 326 408T311 390T292 378T274 374Q249
374 233 394T198 447Q192 430 187 419T170 393Q165 388 156 380T131 371Q122 371 112 374T92 385T76 402T69 427Q69 449 84 470T115 509Q101 512 85 517T55 529T32 548T22 576Q22 585 25 596T34 616T51 631T76 638Q99 638 119 626T149 605Q147 617 146 628T145
650Q145 682 158 699T201 716Q208 716 218 715T237 707T252 689T259 657Q259 644 257 632T252 607Z" />
<glyph unicode="," glyph-name="comma" horiz-adv-x="229" d="M103 1Q92 2 82 4T57 15Q52 18 45 24T32 39T21 61T16 91Q16 131 41 158T106 186Q127 186 146 177T181 150T205 103T214 37Q214 -7 202 -42T169 -102T124 -140T75 -153Q50 -153 37 -139T23 -106Q23
-99 26 -89T43 -69Q49 -64 55 -62T68 -56Q93 -43 98 -26T103 1Z" />
<glyph unicode="-" glyph-name="hyphen" horiz-adv-x="375" d="M266 362Q278 362 291 360T315 352Q335 342 343 325T352 289Q352 277 348 267T339 249Q323 229 303 225T272 221H108Q97 222 86 223T62 230Q49 237 36 251T22 292Q22 311 32 327Q39 339 49 345T71
355T92 360T110 362H266Z" />
<glyph unicode="." glyph-name="period" horiz-adv-x="229" d="M115 -10Q95 -10 78 -3T48 18T28 48T20 84Q20 124 47 151T115 179Q134 179 151 172T181 152T201 122T209 84Q209 65 202 48T182 18T152 -2T115 -10Z" />
<glyph unicode="/" glyph-name="slash" horiz-adv-x="417" d="M147 53Q141 42 135 30T119 9T98 -7T68 -13Q39 -13 19 7T-1 59Q-1 75 3 86T17 117L265 645Q271 658 278 671T295 696T318 715T349 722Q378 722 398 703T419 652Q419 637 415 625T406 602L147 53Z" />
<glyph unicode="0" glyph-name="zero" horiz-adv-x="604" d="M304 713Q346 713 385 702T457 667Q498 637 522 597T559 513T575 428T579 353Q579 298 573 262T561 202Q544 145 513 99T437 25Q407 7 370 -2T295 -12Q241 -12 197 6T115 65Q97 84 81 108T53 167T34
248T26 358Q26 401 32 444T52 526T90 600T147 661Q172 680 196 690T242 706T279 712T304 713ZM306 559Q268 559 246 534T212 463Q204 434 202 404T200 345Q200 334 200 323T201 301Q202 284 206 257T221 203T252 157T305 137Q342 137 362 162T391 221T402 289T404
344Q404 383 401 421T388 490T358 540T306 559Z" />
<glyph unicode="1" glyph-name="one" horiz-adv-x="604" d="M178 447Q161 447 141 449T106 466Q85 484 85 516Q85 525 87 535T97 554Q108 571 124 575T169 585Q205 591 224 604T258 641Q263 647 266 653T274 666Q281 677 298 692T350 707Q363 707 385 701T422
668Q431 652 432 639T434 613V87Q434 72 431 57T417 26Q406 9 387 0T345 -10Q335 -10 325 -8T303 -1Q287 7 278 18T265 42T259 66T258 87V447H178Z" />
<glyph unicode="2" glyph-name="two" horiz-adv-x="604" d="M151 0Q134 1 120 2T93 8Q75 15 65 26T49 48T42 71T40 89Q40 106 45 119T59 144T81 167T113 194Q149 224 186 253T258 314Q311 362 336 402T362 482Q362 516 342 535T291 555Q270 555 257 549T236 533T222
512T213 489Q209 480 206 472T198 455Q186 437 168 426T128 415Q117 415 104 419T78 432T58 458T50 500Q50 525 63 561T105 630T181 687T296 711Q360 711 406 691T483 639T527 568T542 489Q542 445 527 406T486 331T426 263T355 200Q338 186 322 174T288 148L462
150Q473 150 485 149T512 141Q532 131 542 114T553 75Q553 52 544 39T528 20Q513 6 499 4T468 0H151Z" />
<glyph unicode="3" glyph-name="three" horiz-adv-x="604" d="M286 711Q360 711 406 691T478 639Q495 619 508 589T522 520Q522 479 509 452T478 409T447 385T430 377Q425 375 419 374T408 371Q426 368 445 361T480 342Q486 338 497 329T519 303T539 262T548 203Q548
147 525 107T464 40T378 2T279 -11Q244 -11 218 -7T172 4T140 16T122 25Q90 43 65 72T39 140Q39 161 46 175T65 200T91 214T119 219Q127 219 144 215T182 187Q187 181 191 175T201 164Q224 135 268 135Q285 135 301 137T332 148Q352 158 361 174T370 209Q370 214
369 222T364 241Q348 279 295 285Q286 287 277 287T258 289Q238 292 228 301T212 319T206 338T205 350Q205 379 222 396Q232 407 243 410T266 415Q302 419 324 433T347 488Q347 521 327 540T272 560Q252 560 237 552T212 533Q207 526 204 519T196 505Q187 491 177
484T158 473T141 469T130 468Q100 468 75 488T49 546Q49 569 63 598T107 652T181 694T286 711Z" />
<glyph unicode="4" glyph-name="four" horiz-adv-x="604" d="M294 661Q300 670 308 678T326 693T351 704T386 708Q402 708 420 704T453 687T478 655T488 603V275Q504 275 518 274T546 268Q568 259 577 242T587 206Q587 201 586 193T581 177T569 160T548 146Q533
139 518 139T487 138V94Q487 79 485 62T470 27Q459 10 440 1T400 -9Q386 -9 370 -4T340 16Q321 35 317 55T313 92V138H114Q100 138 80 142T43 169Q32 185 30 203T28 238Q28 257 29 269T34 293T45 316T66 346L294 661ZM319 275Q320 304 320 332T323 389Q325 416
326 443T330 497L186 275H319Z" />
<glyph unicode="5" glyph-name="five" horiz-adv-x="604" d="M222 550L208 438Q215 443 225 450T249 463T284 473T332 477Q390 477 432 457T502 405T543 332T557 249Q557 198 539 151T485 68T398 10T280 -12Q226 -12 183 2T108 38T60 89T43 144Q43 163 50 177T70
202T97 217T128 223Q152 223 167 209T196 178Q201 172 208 164T225 150T250 138T283 133Q308 133 327 141T358 164T377 196T383 234Q383 264 374 284T349 317T316 334T280 340Q245 340 228 329T195 300Q188 292 175 283T137 273Q123 273 108 278T81 293T61 320T53
359Q53 364 53 369T54 380L78 617Q80 632 84 645T101 672Q118 690 138 693T175 698H444Q451 698 465 696T494 687T519 665T530 624Q530 613 526 597T503 566Q489 555 476 553T451 550H222Z" />
<glyph unicode="6" glyph-name="six" horiz-adv-x="604" d="M197 399Q207 408 221 418T253 436T295 451T350 457Q399 457 439 439T509 391T555 319T571 230Q571 176 551 131T494 55T410 6T307 -12Q275 -12 243 -5T181 17Q128 44 99 87T55 177T37 266T34 335Q34
406 49 475T98 596Q126 639 160 662T226 696T284 709T324 711Q373 711 412 699T478 666T520 622T535 573Q535 555 528 541T510 518T484 503T454 498Q427 498 413 511T390 536Q377 553 362 564T314 576Q309 576 300 576T278 571T254 559T230 534Q220 520 209 488T197
399ZM311 306Q294 306 277 301T247 286T225 259T217 219Q217 195 225 178T246 150T276 134T309 128Q324 128 340 133T369 148T392 176T401 219Q401 261 375 283T311 306Z" />
<glyph unicode="7" glyph-name="seven" horiz-adv-x="604" d="M439 699Q456 698 471 697T501 684Q521 671 529 650T537 605Q537 589 534 576T525 549T507 516T477 470Q438 410 413 359T370 262T341 170T318 76Q315 65 311 51T297 24T273 2T234 -7Q216 -7 200 -1T172
18T153 48T145 86Q145 103 154 145T187 249T253 388T361 554H134Q123 555 111 556T85 566Q71 574 61 589T50 626Q50 646 60 663Q75 688 96 693T134 699H439Z" />
<glyph unicode="8" glyph-name="eight" horiz-adv-x="604" d="M469 370Q480 364 497 353T530 322T557 273T569 204Q569 166 554 128T506 58T422 8T297 -11Q232 -11 182 6T98 54T47 123T29 205Q29 249 41 277T69 324T102 350T128 363Q120 369 107 379T81 407T59
449T50 508Q50 540 63 579T110 649Q139 675 188 693T301 712Q355 712 401 698T482 659T535 597T554 514Q554 482 545 459T527 422Q513 401 499 390T469 370ZM303 568Q264 568 239 548T214 496Q214 480 220 468T234 449Q250 434 270 431T304 427Q327 427 343 433T370
450T386 472T391 497Q391 523 371 545T303 568ZM301 297Q274 297 257 291T229 277Q212 263 207 247T201 217Q201 202 206 188T220 164Q235 147 256 141T299 135Q306 135 316 135T337 139T360 148T381 167Q391 180 394 194T397 219Q397 228 394 241T380 267T351
288T301 297Z" />
<glyph unicode="9" glyph-name="nine" horiz-adv-x="604" d="M399 301Q390 293 378 283T349 263T307 248T249 242Q197 242 156 260T87 310T43 383T28 468Q28 522 48 567T105 643T188 692T290 710Q328 710 375 698T466 647Q495 622 514 590T544 522T559 448T564
370Q564 312 553 249T515 135Q487 81 450 52T377 9T312 -7T270 -10Q219 -10 179 3T112 38T71 83T57 130Q57 148 64 162T82 186T108 201T138 207Q166 207 193 185Q201 178 207 171T220 157Q227 151 241 142T283 132Q303 132 317 138T340 150Q359 163 370 180T387
218T395 259T399 301ZM292 569Q250 569 225 545T199 480Q199 457 207 441T229 414T258 399T290 394Q308 394 324 399T354 416T375 443T383 480Q383 516 358 542T292 569Z" />
<glyph unicode=":" glyph-name="colon" horiz-adv-x="271" d="M155 332Q115 332 88 359T60 427Q60 446 67 463T87 493T117 513T155 521Q174 521 191 514T221 494T241 464T249 427Q249 407 242 390T222 360T192 340T155 332ZM155 -10Q135 -10 118 -3T88 18T68 48T60
84Q60 124 87 151T155 179Q174 179 191 172T221 152T241 122T249 84Q249 65 242 48T222 18T192 -2T155 -10Z" />
<glyph unicode=";" glyph-name="semicolon" horiz-adv-x="271" d="M156 334Q116 334 89 361T61 429Q61 448 68 465T88 495T118 515T156 523Q175 523 192 516T222 496T242 466T250 429Q250 409 243 392T223 362T193 342T156 334ZM144 1Q133 2 123 4T98 15Q93 18
86 24T73 39T62 61T57 91Q57 131 82 158T147 186Q168 186 187 177T222 150T246 103T255 37Q255 -7 243 -42T210 -102T165 -140T116 -153Q91 -153 78 -139T64 -106Q64 -99 67 -89T84 -69Q90 -64 96 -62T109 -56Q135 -42 139 -26T144 1Z" />
<glyph unicode="?" glyph-name="question" horiz-adv-x="583" d="M31 538Q31 573 56 614T129 684Q162 704 207 715T301 727Q350 727 385 720T445 701T486 676T513 652Q523 641 533 629T551 599T564 561T569 511Q569 473 557 443T527 389T489 349T451 319Q431 305
420 294T398 263Q394 255 388 246T373 228T351 215T320 209Q284 209 257 233T229 298Q229 314 234 331T253 365Q258 371 262 376T274 387T292 401T323 424Q333 431 344 439T364 458T380 481T386 508Q386 523 379 534T366 550Q357 558 342 564T299 571Q276 571 254
565T216 541Q210 535 207 530T195 505Q192 497 186 487T170 469T147 454T115 448Q78 448 55 474T31 538ZM303 -10Q283 -10 266 -3T236 18T216 48T208 84Q208 124 235 151T303 179Q322 179 339 172T369 152T389 122T397 84Q397 65 390 48T370 18T340 -2T303 -10Z"
/>
<glyph unicode="A" glyph-name="A" horiz-adv-x="646" d="M184 633Q192 655 202 670T226 694T259 706T306 711Q343 711 368 709T410 699T439 673T462 625L632 146Q637 130 641 116T646 85Q646 60 637 42T612 13T580 -4T548 -10Q537 -10 522 -6T496 6Q473 21 464
44T446 92L435 131H207L192 79Q188 65 182 50T166 21T139 -1T97 -10Q80 -10 62 -4T30 13T7 42T-2 84Q-2 100 1 114T10 143L184 633ZM320 524L250 282H391L320 524Z" />
<glyph unicode="B" glyph-name="B" horiz-adv-x="688" d="M46 598Q46 621 48 638T64 674Q81 696 102 701T144 706H399Q421 706 444 705T490 701T536 689T577 668Q602 651 615 629T635 587T643 550T645 527Q645 497 636 470T609 422Q589 399 565 389T509 375Q520
373 534 370T563 362T593 347T622 324Q641 304 653 273T666 199Q666 160 654 123T614 58Q594 38 571 27T523 9T472 2T418 0H140Q127 0 110 4T75 24Q54 44 50 65T46 102V598ZM248 550V432H356Q386 432 404 434T435 448Q442 454 447 465T452 491Q452 511 444 523T426
540Q414 548 399 549T370 550H248ZM247 288V154H376Q393 154 410 156T441 169Q456 180 462 194T468 224Q468 240 463 251T451 268Q437 282 418 285T365 288H247Z" />
<glyph unicode="C" glyph-name="C" horiz-adv-x="688" d="M18 348Q18 424 37 497T110 627Q159 678 223 700T360 722Q416 722 470 712T571 672Q582 665 598 652T631 619T658 575T669 520Q669 504 663 487T646 457T618 434T578 425Q557 425 542 431T517 446T501
462T492 476Q490 479 487 485T480 500T473 514T467 524Q450 550 424 559T374 569Q332 569 300 550T250 494Q236 467 231 431T225 359Q225 311 236 263T276 182Q296 160 321 150T375 139Q408 139 430 147T465 167T485 191T495 211Q499 221 502 231T511 250Q514 255
519 263T534 279T556 292T589 298Q624 298 648 274T673 201Q673 167 659 133T619 71Q592 41 557 24T488 -3T424 -14T376 -17Q304 -17 237 3T117 72Q84 103 65 139T35 211T21 283T18 348Z" />
<glyph unicode="D" glyph-name="D" horiz-adv-x="708" d="M48 599Q49 616 52 635T70 673Q80 685 93 692T118 702T142 705T161 706H339Q354 706 377 705T426 699T481 685T537 658Q568 639 595 610T642 543T674 458T686 354Q686 281 662 213T587 93Q554 59 519 41T446
13T365 2T276 0H163Q146 0 128 2T92 14Q76 23 68 35T55 60T49 85T48 106V599ZM249 549V159H305Q328 159 350 161T393 170T431 191T460 231Q472 256 477 291T482 355Q482 412 469 450T440 506Q427 521 411 529T377 542T341 548T305 549H249Z" />
<glyph unicode="E" glyph-name="E" horiz-adv-x="604" d="M46 604Q46 618 48 636T60 669T90 696T149 707H484Q503 706 521 705T557 696Q576 686 587 668T599 627Q599 616 594 599T571 569Q554 557 533 555T482 552H246V441H473Q487 440 501 438T529 428Q546 418
556 403T566 367Q566 346 556 331Q548 317 537 309T513 297T490 292T472 291H246V155H511Q526 154 544 152T580 136Q594 125 600 110T606 78Q606 58 598 45T582 24Q563 7 537 4T478 0H147Q130 1 110 4T72 22Q54 38 51 60T46 102V604Z" />
<glyph unicode="F" glyph-name="F" horiz-adv-x="604" d="M48 599Q49 613 50 627T58 657Q67 676 79 686T104 700T129 706T150 707H517Q528 706 543 704T572 692Q587 682 596 665T605 629Q605 612 597 596T575 569Q561 558 546 556T517 552H248V435H472Q487 434
503 432T537 419Q548 412 554 404T564 387T567 373T568 362Q568 350 566 341T560 325Q553 310 543 302T521 289T500 284T483 283H247V100Q246 86 244 68T229 31Q219 16 199 3T146 -10Q95 -10 67 30Q53 50 51 67T48 101V599Z" />
<glyph unicode="G" glyph-name="G" horiz-adv-x="750" d="M705 109Q704 83 703 66T696 35Q688 17 672 4T630 -10Q609 -10 593 0Q570 14 566 32T559 66Q550 56 538 44T503 19Q463 -4 424 -10T352 -16Q328 -16 302 -13T247 -2T190 21T133 63Q100 92 78 126T43 198T25
273T19 350Q19 433 44 502T115 620T228 697T378 725Q443 725 496 710T588 670T648 612T670 545Q670 512 646 487T582 461Q560 461 544 470T517 491Q512 496 508 502T499 515Q496 519 489 527T468 544T435 559T388 566Q344 566 312 550T259 505T228 438T218 358Q218
307 229 268T262 201T311 160T374 146Q393 146 416 151T460 168Q513 197 522 258H455Q439 258 422 259T391 269Q372 279 362 296T352 335Q352 355 361 370T384 395Q398 404 410 406T436 409H620Q634 409 648 407T676 397Q696 383 700 362T705 314V109Z" />
<glyph unicode="H" glyph-name="H" horiz-adv-x="708" d="M46 597Q47 614 49 633T65 673Q75 690 95 703T146 717Q161 717 178 712T211 693T237 656T247 598V448H461V594Q462 611 463 628T475 664Q489 690 512 703T562 717Q581 717 600 710T635 684Q653 664 656
644T661 606V116Q660 100 658 83T648 47Q639 27 627 16T603 -1T580 -8T561 -10Q539 -10 519 -2T486 23Q469 43 466 66T461 113V291H247V114Q246 96 244 76T228 35Q214 12 192 1T145 -10Q99 -10 71 26Q53 49 50 72T46 114V597Z" />
<glyph unicode="I" glyph-name="I" horiz-adv-x="292" d="M44 600Q44 621 49 646T80 695Q91 705 107 711T143 718Q163 718 181 710T214 687T236 650T245 597V103Q245 89 242 71T227 35Q213 14 192 3T145 -9Q122 -9 101 1T65 31Q51 50 48 68T44 103V600Z" />
<glyph unicode="J" glyph-name="J" horiz-adv-x="542" d="M295 600Q295 618 298 641T318 684Q326 695 344 706T392 718Q403 718 420 715T454 700Q495 670 495 596V247Q495 226 494 203T488 157T475 111T451 69Q417 24 361 6T241 -13Q211 -13 170 -7T94 18Q67 33
49 53T20 95T3 139T-2 181Q-2 226 23 254T93 283Q118 283 134 274T158 257Q170 243 174 230T181 204Q182 196 185 186T194 165T211 147T240 140Q260 140 271 147T287 164T294 186T295 207V600Z" />
<glyph unicode="K" glyph-name="K" horiz-adv-x="646" d="M52 605Q53 622 54 639T67 674Q81 696 104 706T152 717Q194 717 221 688T249 607V444L446 677Q457 690 475 703T522 717Q541 717 557 710T586 689T605 660T612 628Q612 604 602 587T578 555L443 407L631
146Q639 135 645 120T652 84Q652 67 646 51T628 21T597 -1T554 -10Q537 -10 524 -6T501 6T484 21T470 37L298 287L249 248V97Q248 83 246 65T232 29Q221 14 201 2T151 -10Q139 -10 126 -8T100 2Q83 11 74 23T60 47T54 70T52 88V605Z" />
<glyph unicode="L" glyph-name="L" horiz-adv-x="562" d="M247 155H458Q475 155 491 153T524 142Q547 129 554 111T561 79Q561 68 559 59T552 42Q544 27 533 19T509 6T484 1T462 0H142Q130 0 115 2T86 13Q71 22 63 34T52 59T47 85T46 109V589Q46 599 46 611T50
637T59 664T76 689Q88 701 104 709T145 717Q167 717 181 711T206 697Q220 686 228 672T241 643T246 613T247 585V155Z" />
<glyph unicode="M" glyph-name="M" horiz-adv-x="917" d="M47 586Q47 601 48 620T57 657T82 688T131 705Q135 705 140 705T157 706T190 706T249 706Q272 706 295 702T338 675Q355 655 364 627T384 553L444 277Q448 257 450 246T453 224T457 204T462 176Q470 216
476 247T489 306T502 362T515 423T532 498T555 593Q564 632 575 655T603 689T640 703T689 706H751Q770 706 790 704T828 693T856 664T867 608V110Q867 93 866 76T856 41Q845 16 824 4T775 -9Q758 -9 744 -4T718 9Q692 26 686 50T679 97L686 555L654 412L583 130Q576
101 568 76T547 32T513 2T457 -9Q426 -9 406 3T371 35T348 81T331 137Q320 182 311 217T295 282T281 342T267 403T252 474T232 562L234 101Q234 87 233 74T224 43Q209 12 185 2T140 -9Q124 -9 108 -3T77 17Q55 38 51 60T47 100V586Z" />
<glyph unicode="N" glyph-name="N" horiz-adv-x="708" d="M45 616Q45 632 49 653T74 694Q92 711 113 714T155 718Q176 718 191 715T217 705T237 688T254 664Q281 619 307 576T360 487Q392 433 422 379T483 270L475 616Q475 631 477 646T490 677Q499 692 510 700T531
712T551 717T566 718Q584 718 601 712T633 690Q653 668 656 645T661 602V101Q661 92 659 74T648 38T617 6T558 -8Q546 -8 532 -5T503 7T470 32T433 75Q419 94 395 134T341 225T280 330T223 431L231 99Q230 82 229 66T216 32Q203 12 183 1T139 -10Q116 -10 95 2Q77
11 67 24T52 52T46 82T45 111V616Z" />
<glyph unicode="O" glyph-name="O" horiz-adv-x="771" d="M16 357Q16 411 27 457T57 541T103 609T159 660Q204 692 263 709T387 726Q425 726 468 719T549 696Q591 679 626 650T685 589Q716 545 734 483T753 346Q753 320 750 286T735 214T701 139T640 68Q625 55
604 40T552 13T480 -8T384 -17Q344 -17 305 -11T229 9Q172 31 128 72T57 167Q34 211 25 259T16 357ZM389 563Q339 563 307 544T255 496T227 431T219 361Q219 352 219 343T221 325Q229 243 268 195T384 146Q468 146 509 204T551 360Q551 370 550 387T544 427T528
473T495 519Q471 545 444 554T389 563Z" />
<glyph unicode="P" glyph-name="P" horiz-adv-x="625" d="M46 590Q46 602 46 615T51 641T62 667T84 689Q102 702 122 704T163 706H352Q390 704 430 701T509 678Q559 654 593 603T627 476Q627 427 612 384T572 312Q549 286 522 272T466 250T408 242T353 240H246V100Q246
80 242 64Q240 58 235 46T219 21T190 0T146 -10Q132 -10 112 -4T72 24Q55 45 51 64T46 104V590ZM247 554V392H324Q341 392 359 393T395 404Q418 417 426 436T435 472Q435 489 429 504T409 532Q391 548 368 551T319 554H247Z" />
<glyph unicode="Q" glyph-name="Q" horiz-adv-x="771" d="M578 26Q568 21 552 14T513 -1T457 -12T384 -17Q287 -17 221 12T108 92Q78 125 60 160T32 230T19 297T16 357Q16 441 42 509T117 625T234 700T387 726Q505 726 589 677T714 539Q734 496 743 444T753 344Q753
307 747 264T720 175Q708 149 698 135T676 107L707 82Q715 74 723 63T732 32Q732 18 726 6T709 -16T687 -30T663 -36Q645 -36 632 -26T607 -5L578 26ZM439 154Q426 165 414 178T401 213Q401 226 406 238T421 261T442 277T468 283Q481 283 491 279T508 269T521 256T531
244Q543 270 547 300T551 360Q551 396 546 422T527 474Q518 492 506 508T477 536T438 555T387 563Q358 563 331 555T282 528Q249 501 234 458T219 354Q219 310 228 273T258 207T310 162T384 146Q404 146 416 148T439 154Z" />
<glyph unicode="R" glyph-name="R" horiz-adv-x="667" d="M44 604Q45 618 46 632T57 661Q66 677 77 686T102 699T127 705T148 707H381Q442 707 493 698T586 652Q617 624 630 589T643 513Q643 465 628 437T601 395Q575 366 550 358T505 345Q525 342 545 337T582
318T613 276T635 200Q637 183 641 160T651 121Q656 110 661 98T667 73Q667 55 659 40T636 14T602 -4T562 -10Q533 -10 517 0T493 17Q463 44 454 76T439 151Q437 165 434 178T425 205Q416 223 404 232T377 246T349 252T322 254H246V106Q246 87 243 67T223 26Q209
9 189 0T146 -10Q104 -10 74 22Q54 43 49 66T44 108V604ZM246 553V408H350Q368 408 388 410T424 426Q433 433 440 446T447 479Q447 500 438 517Q423 542 399 547T351 553H246Z" />
<glyph unicode="S" glyph-name="S" horiz-adv-x="667" d="M321 723Q358 723 395 720T467 705Q500 695 528 678T577 640T609 594T621 545Q621 523 614 507T594 479T565 461T532 455Q510 455 490 465T456 499Q453 505 450 511T444 524Q441 529 438 533T431 542Q419
554 403 560T372 570T345 574T329 575Q288 575 263 560T237 517Q237 497 251 488T283 472Q290 469 306 465T343 455T387 443T431 432T469 421T494 413Q565 386 604 336T644 219Q644 187 634 149T597 79Q575 51 547 33T486 3T418 -13T347 -18Q254 -18 186 1T72 67Q40
99 29 134T17 191Q17 234 44 259T108 285Q128 285 145 278Q165 268 176 254T192 226Q196 219 198 212T204 197Q209 188 215 180T231 164Q244 153 261 147T294 138T322 135T340 134Q385 134 415 152T446 199Q446 214 439 224T417 241T379 256T325 271Q274 285 241
294T184 312T146 329T114 351Q72 384 57 425T42 502Q42 539 57 578T105 649T191 702T321 723Z" />
<glyph unicode="T" glyph-name="T" horiz-adv-x="604" d="M491 706Q514 706 537 702T579 680Q591 669 596 656T602 628Q602 609 594 594T571 568Q554 556 536 554T505 551H400V109Q400 89 396 70T378 31Q368 17 357 9T335 -3T315 -8T300 -9Q278 -9 262 -3T233
15Q209 37 204 62T198 109V552H102Q87 552 71 554T38 567Q23 577 13 593T2 632Q2 647 8 662T31 690Q45 701 58 703T85 706H491Z" />
<glyph unicode="U" glyph-name="U" horiz-adv-x="708" d="M47 578Q47 607 51 635T76 687Q103 717 148 717Q173 717 187 710T212 694Q239 671 244 643T250 583V249Q250 236 251 222T257 195Q268 169 294 155T355 141Q397 141 416 152T444 175Q450 182 453 188T457
203T459 226T460 264V586Q461 609 464 635T486 684Q499 699 519 708T560 717Q579 717 598 710T632 685Q654 662 658 635T662 585V282Q662 248 661 217T652 159T632 106T595 59Q566 32 531 17T462 -6T398 -15T352 -17Q298 -17 246 -7T148 33Q112 56 92 85T62 146T50
205T47 256V578Z" />
<glyph unicode="V" glyph-name="V" horiz-adv-x="604" d="M256 418Q265 383 271 359T282 314T291 271T301 217Q305 236 307 250T313 277T320 304T329 340L414 636Q418 647 423 661T439 687T466 708T507 717Q530 717 548 709T578 688T597 657T604 622Q604 603 599
585T587 548L425 97Q415 69 407 50T385 18T350 0T295 -6Q265 -6 247 0T216 19T195 49T178 91L6 583Q3 593 1 602T-1 622Q-1 664 27 690T97 717Q123 717 140 708T169 686T186 658T196 631L256 418Z" />
<glyph unicode="W" glyph-name="W" horiz-adv-x="896" d="M5 578Q2 590 0 602T-2 627Q-2 667 25 692T94 717Q122 717 139 707T168 681T184 650T191 622L232 437Q238 407 242 386T249 345T255 301T264 241Q274 295 281 333T297 412T316 501T344 624Q349 642 355
658T373 688T403 708T450 716Q489 716 517 699T556 628L611 371Q615 352 617 338T622 310T626 282T631 249Q634 265 636 276T640 298T644 318T649 343L708 624Q711 638 716 654T733 685Q740 693 756 705T802 717Q820 717 837 711T867 692T889 663T897 625Q897 616
896 607T893 588L757 77Q753 62 747 47T730 20T699 1T649 -7Q595 -7 571 14T534 90L474 352Q469 371 467 385T462 412T457 440T451 476Q449 461 448 451T444 430T440 408T434 378L371 102Q366 80 360 61T341 26T309 2T256 -7Q202 -7 177 15T139 83L5 578Z" />
<glyph unicode="X" glyph-name="X" horiz-adv-x="562" d="M54 567Q45 581 38 595T31 631Q31 650 38 666T58 694T86 711T119 718Q155 718 176 697T210 655L285 528L355 653Q361 663 368 674T386 695T412 711T447 718Q467 718 483 711T512 691T530 663T537 631Q537
611 531 598T519 576L385 381L538 145Q547 131 554 115T562 77Q562 64 557 49T540 20T511 -1T470 -10Q450 -10 436 -4T410 12T390 34T374 59L283 220L179 45Q175 38 168 29T150 11T124 -4T89 -10Q68 -10 52 -3T24 18T6 47T-1 80Q-1 103 8 120T29 155L186 382L54
567Z" />
<glyph unicode="Y" glyph-name="Y" horiz-adv-x="583" d="M293 440L387 636Q393 647 401 661T421 688T449 709T486 718Q508 718 526 710T556 689T574 660T581 626Q581 606 576 594T565 571L397 278V98Q396 83 394 69T381 37Q368 17 348 4T298 -9Q264 -9 235 12Q221
23 213 36T202 62T197 87T196 111V275L15 572Q8 584 4 595T0 626Q0 647 7 664T27 693T56 711T90 718Q111 718 126 712T151 696T169 677T181 657L293 440Z" />
<glyph unicode="Z" glyph-name="Z" horiz-adv-x="625" d="M150 551Q123 551 110 552T82 559Q53 570 44 591T34 628Q34 647 43 664T69 693Q83 701 99 704T135 707H499Q514 706 534 704T574 693T606 664T620 611Q620 578 606 554T565 500L267 154H504Q523 154 540
153T572 145Q599 134 610 115T621 78Q621 68 619 58T612 40Q604 26 593 18T571 7T547 2T526 0H117Q97 0 79 2T41 18Q30 25 17 41T4 91Q4 120 15 139T46 182L363 551H150Z" />
<glyph unicode="[" glyph-name="bracketleft" horiz-adv-x="479" d="M279 566V-32H380Q391 -33 402 -34T425 -40Q441 -48 451 -64T462 -101Q462 -121 453 -136T430 -159Q417 -167 405 -168T381 -170H192Q178 -170 165 -169T137 -157Q116 -143 113 -126T108 -96V624Q109
640 111 654T127 682Q142 699 159 702T189 706H374Q386 706 399 705T427 696Q448 685 455 667T463 635Q463 620 453 601T413 571Q401 567 391 567T370 566H279Z" />
<glyph unicode="]" glyph-name="bracketright" horiz-adv-x="479" d="M202 -30V568H101Q90 569 79 570T56 576Q39 584 29 600T19 637Q19 657 28 672T51 695Q64 703 76 704T100 706H289Q303 706 316 705T344 693Q365 679 368 662T373 632V-88Q372 -104 370 -118T354
-146Q338 -163 322 -166T292 -170H107Q94 -170 81 -169T54 -160Q32 -149 25 -131T18 -99Q18 -84 28 -65T68 -35Q79 -31 89 -31T111 -30H202Z" />
<glyph unicode="_" glyph-name="underscore" horiz-adv-x="500" d="M510 -125H-10V-75H510V-125Z" />
<glyph unicode="`" glyph-name="grave" horiz-adv-x="292" d="M161 748Q178 748 189 744T207 734T218 719T226 700L250 625Q255 613 255 604Q255 593 251 588T240 580T227 576T215 575H173Q163 575 156 576T143 581T131 589T118 604L47 691Q43 696 40 701T37 713Q37
728 50 739Q57 744 65 745T82 748H161Z" />
<glyph unicode="a" glyph-name="a" horiz-adv-x="562" d="M518 78Q518 68 516 53T506 25T482 1T436 -9Q412 -9 397 -2T372 17T359 39T351 58Q340 47 327 35T294 12T247 -5T180 -12Q100 -12 55 28T9 145Q9 189 24 218T64 265T116 294T170 310Q177 311 195 315T235
323T274 330T301 336Q311 338 324 344T338 371Q338 388 324 400T277 413Q252 413 233 408T200 382Q197 377 194 373T188 363Q180 350 163 339T121 327Q106 327 91 332T65 346T46 368T38 399Q38 410 43 425T60 456T92 487T145 513Q177 524 208 527T267 531Q285 531
311 530T365 522T420 505T469 472T504 418T518 340V78ZM343 240Q325 234 314 230T292 222T271 216T245 209Q237 207 228 204T210 196T195 182T189 162Q189 160 190 153T196 139T212 126T243 120Q278 120 302 134T343 163V240Z" />
<glyph unicode="b" glyph-name="b" horiz-adv-x="604" d="M41 586Q42 622 45 643T62 683Q79 706 100 712T135 719Q151 719 167 714T197 697T218 668T226 626V468Q249 501 286 516T366 531Q405 531 445 516T517 467T570 382T590 258Q590 198 574 148T527 63T454
8T358 -12Q313 -12 279 0T212 43Q208 36 202 27T186 10T162 -3T129 -9Q109 -9 90 0T59 25Q45 43 43 63T41 100V586ZM305 403Q281 403 262 389Q247 378 239 361T226 325T221 288T220 257Q220 244 221 221T231 174T257 133T306 116Q321 116 335 121T361 138Q381 158
388 194T395 262Q395 326 373 362Q360 384 342 393T305 403Z" />
<glyph unicode="c" glyph-name="c" horiz-adv-x="542" d="M16 252Q16 318 32 364T70 436Q82 452 102 469T151 501T216 525T297 535Q350 535 393 522T466 488T512 439T529 384Q529 349 507 326T444 302Q430 302 420 306T402 315T391 325T386 332Q381 339 378 346T370
361Q368 364 364 370T352 383T331 394T300 399Q268 399 249 386T220 351T206 305T203 258Q203 251 203 241T205 218T210 193T219 168Q233 138 254 129T296 120Q331 120 347 135T374 169Q378 176 381 183T389 196Q402 214 419 221T456 229Q489 229 511 208T533 148Q533
118 518 88T472 35T396 -2T293 -17Q242 -17 193 -4T100 48Q70 73 54 101T29 157T18 209T16 252Z" />
<glyph unicode="d" glyph-name="d" horiz-adv-x="604" d="M381 606Q381 620 382 635T390 664Q401 691 422 704T470 717Q491 717 506 710T531 693Q555 670 559 645T563 602V127Q563 104 561 82T550 39Q537 14 515 3T470 -9Q458 -9 444 -5T418 7T396 28T386 62Q379
53 368 41T339 16T295 -4T233 -12Q189 -12 150 5T82 56T35 139T17 251Q17 302 30 351T70 440T140 503T243 527Q281 527 318 513T381 461V606ZM300 398Q289 398 269 391T231 355Q218 332 214 304T209 252Q209 218 213 200T221 173Q229 150 247 132T297 113Q305 113
318 116T345 130Q350 134 356 141T369 162T379 197T384 251Q384 281 380 309T367 354Q359 371 342 384T300 398Z" />
<glyph unicode="e" glyph-name="e" horiz-adv-x="562" d="M200 215Q201 207 204 191T216 159T244 131T293 119Q325 119 347 135Q358 142 367 151T387 168Q395 175 407 181T436 187Q468 187 491 167T515 117Q515 99 501 76T458 33T386 -2T284 -16Q210 -16 159 8T77
72T31 162T16 264Q16 319 32 368T82 453T166 511T286 533Q353 533 402 512T482 456T529 378T544 291Q544 258 530 237T485 215H200ZM365 316Q363 328 361 339T353 361Q351 364 347 370T335 383T315 394T285 399Q261 399 245 390Q224 379 214 360T199 316H365Z"
/>
<glyph unicode="f" glyph-name="f" horiz-adv-x="354" d="M70 394Q60 395 51 395T31 401Q22 405 8 418T-6 457Q-6 477 2 489T24 509Q35 515 44 516T71 517Q71 550 72 575T80 622Q92 656 114 675T162 703T212 714T249 716Q266 716 279 715T305 711Q346 702 364
681T383 634Q383 626 381 617T372 599T354 584T326 578Q322 578 310 579T293 581Q281 581 274 577T264 567Q259 561 259 553T258 519Q290 519 304 519T328 515Q351 508 361 492T372 455Q372 432 354 413T288 394Q281 394 274 394T259 395V106Q259 91 258 74T246
37Q244 34 239 27T223 11T199 -3T166 -9Q148 -9 135 -5T113 6Q97 17 89 30T76 57T71 86T70 118V394Z" />
<glyph unicode="g" glyph-name="g" horiz-adv-x="583" d="M541 54Q541 25 539 -3T528 -59T499 -112T445 -158Q409 -179 367 -189T283 -199Q230 -199 188 -186T115 -153T69 -107T52 -56Q52 -22 75 -1T129 21Q153 21 166 10T189 -16Q205 -36 221 -50T270 -64Q287
-64 300 -60T323 -50Q336 -41 344 -30T356 0T361 46T362 114Q354 103 343 90T308 63Q284 49 263 45T225 40Q183 40 145 58T79 108T34 186T17 285Q17 336 33 380T77 458T144 511T228 530Q254 530 273 524T306 512Q335 497 349 479T371 449Q373 458 377 471T390 497T414
519T455 529Q494 529 516 505Q535 486 538 465T541 423V54ZM284 398Q263 398 248 389T222 365T206 330T201 288Q201 255 210 234T231 201T257 185T281 180Q292 180 306 185T333 202T355 235T364 288Q364 341 341 369T284 398Z" />
<glyph unicode="h" glyph-name="h" horiz-adv-x="583" d="M39 590Q39 609 41 629T54 668Q62 684 73 693T95 707T116 713T134 715Q147 715 163 710T193 693T217 659T227 603V459Q234 467 247 479T278 502T320 522T375 530Q391 530 411 526T452 513T491 486T523
444Q537 415 540 388T543 336V99Q543 82 540 65T524 31Q512 14 492 3T448 -9Q419 -9 395 7Q381 17 373 29T361 53T356 76T355 96V321Q354 332 352 343T341 366Q333 375 321 381T294 387Q274 387 260 377Q238 363 234 342T228 302V102Q228 88 226 73T214 40Q200
12 178 2T135 -9Q118 -9 102 -4T74 13Q50 33 45 59T39 105V590Z" />
<glyph unicode="i" glyph-name="i" horiz-adv-x="271" d="M135 563Q115 563 98 570T68 590T48 620T40 658Q40 677 47 694T68 724T98 744T135 752Q154 752 171 745T201 725T221 695T229 658Q229 638 222 621T202 591T172 571T135 563ZM40 421Q41 437 43 453T59
487Q66 497 83 512T135 527Q153 527 169 521T199 501T221 468T229 420V105Q229 88 227 71T214 36Q205 21 194 12T172 -1T151 -7T135 -9Q106 -9 85 4T52 37Q44 52 43 67T40 95V421Z" />
<glyph unicode="j" glyph-name="j" horiz-adv-x="271" d="M40 418Q41 435 44 455T64 495Q81 516 100 521T134 527Q149 527 166 522T197 505T221 470T230 414V78Q229 36 228 1T218 -64T194 -115T148 -152Q133 -159 117 -163T85 -169T59 -171T44 -172Q13 -172 -6
-165T-36 -149Q-48 -138 -53 -123T-58 -91Q-58 -66 -50 -52T-31 -30T-10 -20T5 -18Q17 -17 24 -15T34 -7T39 11T40 43V418ZM135 563Q115 563 98 570T68 590T48 620T40 658Q40 677 47 694T68 724T98 744T135 752Q154 752 171 745T201 725T221 695T229 658Q229 638
222 621T202 591T172 571T135 563Z" />
<glyph unicode="k" glyph-name="k" horiz-adv-x="542" d="M40 590Q40 613 43 636T63 681Q76 697 94 706T135 715Q147 715 163 711T194 695T219 659T230 598V341L361 487Q376 504 393 517T439 531Q457 531 471 524T495 506T510 482T515 455Q515 432 504 415T480
385L408 311L515 150Q525 135 533 119T542 80Q542 61 535 45T515 16T487 -2T452 -9Q435 -9 422 -4T398 10T380 27T366 44L271 192L229 151V92Q228 77 226 62T210 29Q200 15 182 3T135 -9Q108 -9 87 3Q70 12 61 25T47 50T41 74T40 94V590Z" />
<glyph unicode="l" glyph-name="l" horiz-adv-x="271" d="M41 606Q42 624 46 646T70 690Q82 702 99 710T137 718Q162 718 180 707T211 680Q225 660 227 642T230 607V102Q229 84 227 67T211 30Q195 6 174 -1T135 -9Q116 -9 102 -4T77 10Q50 31 46 57T41 102V606Z" />
<glyph unicode="m" glyph-name="m" horiz-adv-x="896" d="M40 414Q40 425 41 439T47 467T61 495T86 517Q105 527 128 527Q150 527 170 516Q186 507 195 495T209 470T215 446T217 429Q219 433 221 437T225 445Q228 451 237 464T266 492T314 517T385 528Q414 528
441 520T491 494Q508 479 516 465T530 437Q536 448 543 459T568 485Q586 500 616 514T697 528Q728 528 757 519T809 489Q826 474 836 457T851 420T857 382T858 341V97Q858 82 855 66T840 32Q826 11 806 1T764 -9Q733 -9 709 10Q682 31 676 55T670 96V300Q670 322
669 329T665 344Q659 363 644 373T609 384Q581 384 563 365Q549 350 546 332T543 293V100Q543 79 539 58T515 16Q504 5 488 -2T452 -9Q436 -9 422 -4T397 9Q381 21 373 35T360 65T356 94T355 119V305Q355 314 354 327T346 353T327 373T294 382Q273 382 260 373Q249
365 243 356T233 336T229 317T228 300V98Q228 81 225 65T209 31Q195 12 176 2T135 -9Q118 -9 101 -2T71 17Q50 38 45 61T40 103V414Z" />
<glyph unicode="n" glyph-name="n" horiz-adv-x="583" d="M42 424Q43 438 44 453T53 482Q64 502 83 514T128 527Q166 527 191 500Q207 483 210 468T216 441Q224 452 232 461T253 482Q279 505 313 516T382 528Q418 528 451 514T508 472Q531 445 536 420T542 369V99Q542
83 539 67T525 31Q512 12 493 2T450 -9Q404 -9 378 28Q364 48 361 65T357 102V310Q357 321 356 333T348 358Q340 373 327 381T296 389Q272 389 254 374Q235 357 232 330T228 273V96Q228 83 225 66T210 31Q197 12 177 2T133 -9Q104 -8 83 6T52 40Q45 54 44 68T42
96V424Z" />
<glyph unicode="o" glyph-name="o" horiz-adv-x="583" d="M295 534Q371 534 423 510T507 446T553 357T567 258Q567 187 546 135T487 50T398 0T288 -17Q241 -17 207 -9T148 12T109 38T84 63Q46 106 31 155T16 263Q16 336 39 388T102 472T191 519T295 534ZM293 397Q260
397 242 380T216 341T206 296T204 261Q204 249 206 226T216 179T242 138T292 121Q322 121 339 135T366 170T377 213T379 253Q379 313 361 352Q352 370 337 383T293 397Z" />
<glyph unicode="p" glyph-name="p" horiz-adv-x="604" d="M41 416Q41 436 44 456T64 497Q83 520 103 525T136 531Q153 531 169 525T198 507Q211 495 215 484T222 463Q228 470 239 482T268 505T310 524T369 532Q422 532 463 510T529 458Q563 417 576 367T589 262Q589
197 572 146T523 59T450 6T360 -13Q328 -13 305 -6T267 10T241 30T226 46V-85Q225 -99 223 -116T207 -150Q196 -165 177 -174T136 -183Q130 -183 120 -182T99 -176T76 -162T57 -138Q46 -119 44 -100T41 -57V416ZM308 403Q274 403 251 376Q231 353 226 322T221 262Q221
240 223 218T230 179Q235 160 244 148T263 128T283 118T303 115Q341 115 368 151T396 263Q396 278 395 297T388 333Q380 359 368 373T344 394T322 402T308 403Z" />
<glyph unicode="q" glyph-name="q" horiz-adv-x="604" d="M378 46Q373 40 363 30T338 11T299 -6T244 -13Q196 -13 154 5T81 59T33 145T15 262Q15 316 28 366T75 458Q100 487 141 509T235 532Q269 532 293 524T335 505T364 482T382 463Q384 473 388 484T406 507Q419
519 435 525T468 531Q480 531 500 526T540 497Q557 476 560 457T563 417V-57Q562 -80 560 -99T547 -138Q539 -153 528 -162T506 -175T484 -181T468 -183Q444 -183 424 -173Q408 -164 399 -153T386 -129T380 -105T378 -85V46ZM383 262Q383 301 378 322T366 357Q353
382 335 392T296 403Q293 403 283 402T260 394T236 373T216 333Q211 316 210 297T208 263Q208 187 235 151T301 115Q319 115 333 123T358 145Q361 148 365 155T373 175T380 210T383 262Z" />
<glyph unicode="r" glyph-name="r" horiz-adv-x="417" d="M41 416Q41 425 42 436T46 460T56 485T74 508Q95 527 126 527Q136 527 145 526T164 521Q182 514 192 503T208 479T215 456T218 437Q220 442 222 447T227 458Q242 484 271 506T342 528Q386 528 407 503T428
441Q428 428 425 415T414 390T393 370T359 359Q356 359 348 359T330 358T311 357T299 356Q275 353 262 343T241 319T233 291T231 267V119Q230 104 230 90T224 61Q214 27 190 9T135 -9Q117 -9 100 -2T69 19Q49 40 45 64T41 107V416Z" />
<glyph unicode="s" glyph-name="s" horiz-adv-x="521" d="M207 383Q207 376 210 371T223 360Q229 357 245 352T280 340T315 329T339 321Q357 315 384 304T437 274T481 225T500 153Q500 148 499 134T492 101T471 61T432 23T367 -5T269 -17Q237 -17 209 -15T154
-5Q116 4 92 18T55 44Q35 62 27 83T18 127Q18 149 26 163T45 186T70 198T94 202Q114 202 128 196T152 180T167 162T176 148Q181 139 186 131T199 115T220 104T251 100Q260 100 271 101T293 107T311 118T319 138Q319 148 313 156T297 169T278 178T258 185Q254 186
243 189T220 197T197 204T181 209Q163 215 138 224T88 252T47 297T30 364Q30 396 44 428T88 485Q109 502 132 512T177 527T220 533T254 534Q306 534 348 525T419 499T465 460T481 412Q481 380 458 358T404 336Q389 336 377 341T356 354T342 369T333 382Q329 388
325 394T313 405T294 413T264 416Q239 416 223 408T207 383Z" />
<glyph unicode="t" glyph-name="t" horiz-adv-x="375" d="M86 571Q87 591 91 612T112 653Q119 661 134 672T178 683Q195 683 211 677T240 659T261 628T269 583V519H309Q340 518 357 503T375 456Q375 423 354 407Q341 396 322 395T269 394V189Q269 177 272 167T292
152Q296 151 310 150T330 147Q344 142 358 126T372 80Q372 48 358 31T324 6T288 -3T264 -5Q244 -5 225 -4T187 3Q149 13 127 31T95 71T82 118T79 166Q79 190 79 219T80 279T82 339T83 393Q58 392 46 393T26 396Q6 403 -3 420T-12 458Q-12 463 -12 467T-10 478Q-6
492 1 500T17 512T34 517T49 518H86V571Z" />
<glyph unicode="u" glyph-name="u" horiz-adv-x="583" d="M41 409Q41 423 42 438T52 472Q60 491 71 502T95 518T118 525T135 527Q138 527 146 527T164 523T186 512T208 491Q215 482 222 465T229 404V199Q229 188 231 177T242 154Q248 146 259 139T287 132Q316
132 333 152Q348 169 351 191T354 254V409Q354 426 356 445T368 483Q379 503 399 515T446 527Q475 527 490 516T512 499Q533 478 537 455T542 415V90Q542 79 541 68T534 43Q521 13 498 2T455 -9Q439 -9 426 -4T401 9Q378 28 373 51T367 92Q358 66 342 47T304 16T259
-3T211 -10Q184 -10 152 0T94 33Q75 50 65 69T49 111T42 157T41 208V409Z" />
<glyph unicode="v" glyph-name="v" horiz-adv-x="500" d="M14 379Q8 395 4 408T0 438Q0 476 25 501T89 527Q110 527 124 520T147 504Q163 490 170 473T186 427Q206 362 219 315T238 241L249 187L266 256L324 450Q327 460 332 473T346 498T371 518T410 527Q425
527 441 522T469 505T490 478T499 440Q499 429 498 421T492 401L371 69Q365 54 358 41T338 17T303 1T248 -5Q219 -5 201 -1T170 14T148 41T130 81L14 379Z" />
<glyph unicode="w" glyph-name="w" horiz-adv-x="750" d="M10 386Q5 401 3 413T0 439Q0 474 22 500T85 527Q107 527 123 519T150 499T167 472T176 443Q178 433 182 413T191 369T201 317T211 266T219 223T225 196L238 271L270 434Q272 445 277 461T292 491T321
516T370 527Q400 527 419 518T450 496T466 466T475 436Q485 386 491 354T503 294T512 239T522 173Q524 187 525 197T527 215T530 233T534 256L572 442Q574 452 578 466T593 494T619 517T662 527Q698 527 723 501T748 436Q748 423 746 412T740 388L650 90Q643 68
636 49T611 15Q594 0 576 -3T533 -6Q501 -6 482 -1T450 15T430 44T417 89Q405 147 394 204T372 320Q368 300 360 261T342 179T324 100T310 52Q298 21 273 8T206 -6Q178 -6 160 1T130 18T112 42T103 66L10 386Z" />
<glyph unicode="x" glyph-name="x" horiz-adv-x="500" d="M71 336Q55 355 44 369T25 396T14 419T10 445Q10 462 17 477T37 503T65 520T98 527Q117 527 132 520T159 502T181 476T200 449L245 380L304 467Q320 490 338 508T388 527Q406 527 422 521T450 503T469
476T476 442Q476 415 463 393T431 348L362 269L452 169Q468 151 484 128T501 78Q501 60 494 44T474 17T445 -2T411 -9Q393 -9 379 -3T353 14T332 38T313 63L245 161L177 54Q163 33 143 12T88 -9Q71 -9 56 -3T28 16T8 44T0 79Q0 90 2 99T11 118T29 143T59 180L134
267L71 336Z" />
<glyph unicode="y" glyph-name="y" horiz-adv-x="500" d="M304 -73Q297 -91 286 -110T257 -146T210 -173T138 -184Q80 -184 42 -160T3 -98Q3 -75 19 -54T64 -33Q75 -33 84 -36T103 -43Q112 -46 122 -46Q139 -46 152 -37T165 -10Q165 -4 163 1T158 14Q141 56 128
88T103 149T82 203T61 258T37 322T6 404Q3 413 1 421T-1 438Q-1 457 6 473T25 502T53 520T88 527Q109 527 123 520T147 503T162 482T170 461Q183 417 192 386T209 325T227 265T248 189L274 291L319 444Q322 455 328 469T344 496T371 518T411 527Q429 527 445 521T473
503T492 476T499 442Q499 426 495 413T485 385L304 -73Z" />
<glyph unicode="z" glyph-name="z" horiz-adv-x="500" d="M249 142H411Q425 142 440 140T471 128Q489 115 494 99T499 72Q499 58 494 45T479 22Q463 7 443 4T398 0H99Q81 0 61 3T24 21Q-1 41 -1 76Q-1 105 16 128T61 180L247 378H91Q81 378 72 379T52 387Q41 393
35 401T25 418T20 434T19 447Q19 456 21 468T32 491Q47 511 69 515T110 519H393Q410 519 426 516T459 501Q462 499 467 495T478 482T487 461T491 432Q491 404 480 387T454 353L249 142Z" />
<glyph unicode="{" glyph-name="braceleft" horiz-adv-x="354" d="M94 67Q94 102 93 124T87 160T74 182T50 197Q28 207 16 221T3 264Q3 282 7 293T17 313T32 325T49 334Q56 337 64 341T79 355T90 380T95 422Q95 426 95 438T94 452V531Q94 559 97 591T116 650T167
696T266 714Q292 714 308 711T337 697Q343 690 348 679T354 648Q354 637 351 627T339 605Q330 594 321 590T302 584Q287 580 275 573T262 539Q262 534 262 527T263 515V479Q263 447 263 424T261 385T256 356T247 332Q233 303 208 288T164 271Q162 270 157 269T152
266Q152 263 157 262T164 260Q173 258 186 254T213 239Q238 219 249 194T262 131Q262 128 262 122T263 107T263 92T263 82V31Q263 9 263 -5T267 -29T278 -44T298 -54Q307 -57 317 -61T335 -72T348 -89T354 -115Q354 -130 351 -142T340 -164T315 -178T272 -183Q264
-183 252 -183T224 -180Q191 -175 169 -166T130 -136Q117 -121 110 -106T100 -74T95 -38T94 2V67Z" />
<glyph unicode="}" glyph-name="braceright" horiz-adv-x="354" d="M263 464Q263 428 264 406T270 370T283 348T307 333Q328 323 341 310T354 266Q354 231 340 218T308 197Q300 194 292 189T278 175T267 150T262 108Q262 104 262 92T263 78V0Q263 -28 260 -60T241
-119T190 -165T91 -183Q65 -183 49 -180T20 -165Q14 -159 9 -148T3 -116Q3 -106 6 -95T18 -73Q27 -62 36 -59T55 -53Q70 -49 82 -42T95 -8Q95 -3 95 4T94 17V51Q94 83 94 106T96 145T101 174T110 199Q123 227 149 242T193 260Q195 260 200 261T205 264Q205 267
200 268T193 270Q184 272 171 276T144 292Q119 311 108 336T95 400Q95 403 95 409T94 424T94 438T94 448V500Q94 522 94 536T90 560T79 575T59 585Q50 588 40 592T22 602T9 619T3 646Q3 661 6 673T17 695T42 709T85 714Q93 714 105 713T133 710Q166 705 188 696T227
667Q240 652 247 637T257 604T262 569T263 529V464Z" />
</font>
</defs>
</svg>
