<?xml version="1.0" encoding="utf-8"?>
<!-- Generator: Adobe Illustrator 15.0.0, SVG Export Plug-In . SVG Version: 6.00 Build 0)  -->
<!DOCTYPE svg PUBLIC "-//W3C//DTD SVG 1.1//EN" "http://www.w3.org/Graphics/SVG/1.1/DTD/svg11.dtd">
<svg version="1.1" id="Layer_3" xmlns="http://www.w3.org/2000/svg" xmlns:xlink="http://www.w3.org/1999/xlink" x="0px" y="0px"
	 width="210.831px" height="276.716px" viewBox="0 0 210.831 276.716" enable-background="new 0 0 210.831 276.716"
	 xml:space="preserve">
<g>
	<path fill="#F7F8F9" stroke="#C2C3C4" stroke-width="1.4641" d="M210.099,267.199c0,4.852-4.169,8.785-9.306,8.785H10.037
		c-5.137,0-9.305-3.934-9.305-8.785V9.517c0-4.852,4.168-8.785,9.305-8.785h190.756c5.137,0,9.306,3.934,9.306,8.785V267.199z"/>
	
		<text transform="matrix(0.8372 0 0 1 12.4434 42.1963)" fill="#231F20" font-family="'PalatinoLinotype-Roman'" font-size="37.7631">A</text>
	<g>
		<path fill-rule="evenodd" clip-rule="evenodd" fill="#231F20" d="M141.67,137.478c0.097-15.073-13.122-19.438-21.654-25.835
			c-7.804-5.851-14.488-14.974-15.292-18.31c-0.941,3.405-6.943,12.301-15.373,18.146c-8.694,6.027-21.752,10.762-21.652,25.836
			c0.175,27.448,27.393,32.966,36.967,9.316C113.8,169.338,141.489,164.996,141.67,137.478z"/>
		<path fill="#231F20" d="M103.104,143.126c0,0,4.348,29.747-25.695,37.681h54.553c0,0-25.693-5.928-26.091-37.554L103.104,143.126z
			"/>
	</g>
	<g>
		<path fill-rule="evenodd" clip-rule="evenodd" fill="#231F20" d="M34.719,57.827c0.026-3.83-3.334-4.938-5.503-6.566
			c-1.984-1.485-3.683-3.805-3.886-4.652c-0.241,0.865-1.766,3.127-3.908,4.613c-2.21,1.531-5.529,2.734-5.503,6.566
			c0.043,6.977,6.961,8.379,9.394,2.367C27.637,65.928,34.676,64.822,34.719,57.827z"/>
		<path fill="#231F20" d="M24.918,59.264c0,0,1.105,7.56-6.531,9.577h13.866c0,0-6.533-1.507-6.632-9.545L24.918,59.264z"/>
	</g>
	
		<text transform="matrix(0.8372 0 0 -1 179.3516 238.6792)" fill="#231F20" font-family="'PalatinoLinotype-Roman'" font-size="37.7631">A</text>
	<g>
		<path fill-rule="evenodd" clip-rule="evenodd" fill="#231F20" d="M192.221,220.719c-2.432-6.013-9.353-4.61-9.395,2.366
			c-0.026,3.832,3.292,5.034,5.503,6.566c2.143,1.485,3.669,3.748,3.907,4.612c0.204-0.845,1.901-3.167,3.887-4.651
			c2.169-1.627,5.529-2.738,5.504-6.566C201.584,216.051,194.545,214.947,192.221,220.719z"/>
		<path fill="#231F20" d="M191.825,221.609c0,0,1.105-7.56-6.531-9.577h13.867c0,0-6.533,1.506-6.632,9.546L191.825,221.609z"/>
	</g>
</g>
</svg>
